<?xml version="1.0" encoding="UTF-8" standalone="no"?>
<!DOCTYPE svg PUBLIC "-//W3C//DTD SVG 1.1//EN"
 "http://www.w3.org/Graphics/SVG/1.1/DTD/svg11.dtd">
<!-- Generated by graphviz version 2.43.0 (0)
 -->
<!-- Title: SD5&#45;Devcontainer Pages: 1 -->
<svg width="710pt" height="370pt"
 viewBox="0.00 0.00 710.17 370.00" xmlns="http://www.w3.org/2000/svg" xmlns:xlink="http://www.w3.org/1999/xlink">
<g id="graph0" class="graph" transform="scale(1 1) rotate(0) translate(4 366)">
<title>SD5&#45;Devcontainer</title>
<polygon fill="white" stroke="transparent" points="-4,4 -4,-366 706.17,-366 706.17,4 -4,4"/>
<!-- DP -->
<g id="node1" class="node">
<title>DP</title>
<ellipse fill="#f4ddc7" stroke="#1f2933" stroke-width="1.5" cx="96.82" cy="-149" rx="96.63" ry="18"/>
<text class="opm-entity" text-anchor="middle" x="96.82" y="-146.2" font-family="Helvetica,sans-Serif" font-size="11.00">Devcontainer Provisioning</text>
</g>
<!-- RF -->
<g id="node2" class="node">
<title>RF</title>
<ellipse fill="#f4ddc7" stroke="#1f2933" stroke-width="1.5" cx="389.4" cy="-309" rx="75.54" ry="18"/>
<text class="opm-entity" text-anchor="middle" x="389.4" y="-306.2" font-family="Helvetica,sans-Serif" font-size="11.00">Repository Fetching</text>
</g>
<!-- DP&#45;&gt;RF -->
<g id="edge1" class="edge">
<title>DP&#45;&gt;RF</title>
<path fill="none" stroke="#1f2933" d="M128.91,-166.12C182.28,-195.51 291.17,-255.47 349.49,-287.57"/>
<polygon fill="#1f2933" stroke="#1f2933" points="347.95,-290.72 358.4,-292.48 351.32,-284.59 347.95,-290.72"/>
<text text-anchor="middle" x="253.63" y="-245.8" font-family="Helvetica,sans-Serif" font-size="9.00">consists of</text>
</g>
<!-- CP -->
<g id="node3" class="node">
<title>CP</title>
<ellipse fill="#f4ddc7" stroke="#1f2933" stroke-width="1.5" cx="389.4" cy="-229" rx="57.25" ry="18"/>
<text class="opm-entity" text-anchor="middle" x="389.4" y="-226.2" font-family="Helvetica,sans-Serif" font-size="11.00">Config Parsing</text>
</g>
<!-- DP&#45;&gt;CP -->
<g id="edge2" class="edge">
<title>DP&#45;&gt;CP</title>
<path fill="none" stroke="#1f2933" d="M151.79,-163.86C204.37,-178.34 283.78,-200.2 335.87,-214.54"/>
<polygon fill="#1f2933" stroke="#1f2933" points="335.01,-217.93 345.58,-217.21 336.87,-211.18 335.01,-217.93"/>
<text text-anchor="middle" x="253.63" y="-198.8" font-family="Helvetica,sans-Serif" font-size="9.00">consists of</text>
</g>
<!-- II -->
<g id="node4" class="node">
<title>II</title>
<ellipse fill="#f4ddc7" stroke="#1f2933" stroke-width="1.5" cx="389.4" cy="-149" rx="62.58" ry="18"/>
<text class="opm-entity" text-anchor="middle" x="389.4" y="-146.2" font-family="Helvetica,sans-Serif" font-size="11.00">Image Ingestion</text>
</g>
<!-- DP&#45;&gt;II -->
<g id="edge3" class="edge">
<title>DP&#45;&gt;II</title>
<path fill="none" stroke="#1f2933" d="M193.77,-149C233.81,-149 279.53,-149 316.59,-149"/>
<polygon fill="#1f2933" stroke="#1f2933" points="316.8,-152.5 326.8,-149 316.8,-145.5 316.8,-152.5"/>
<text text-anchor="middle" x="253.63" y="-151.8" font-family="Helvetica,sans-Serif" font-size="9.00">consists of</text>
</g>
<!-- RA -->
<g id="node5" class="node">
<title>RA</title>
<ellipse fill="#f4ddc7" stroke="#1f2933" stroke-width="1.5" cx="389.4" cy="-79" rx="65.59" ry="18"/>
<text class="opm-entity" text-anchor="middle" x="389.4" y="-76.2" font-family="Helvetica,sans-Serif" font-size="11.00">Rootfs Assembly</text>
</g>
<!-- DP&#45;&gt;RA -->
<g id="edge4" class="edge">
<title>DP&#45;&gt;RA</title>
<path fill="none" stroke="#1f2933" d="M156.62,-134.83C206.99,-122.7 279.17,-105.31 329.56,-93.17"/>
<polygon fill="#1f2933" stroke="#1f2933" points="330.43,-96.56 339.33,-90.82 328.79,-89.76 330.43,-96.56"/>
<text text-anchor="middle" x="253.63" y="-118.8" font-family="Helvetica,sans-Serif" font-size="9.00">consists of</text>
</g>
<!-- Holo -->
<g id="node10" class="node">
<title>Holo</title>
<polygon fill="#dce7f4" stroke="#1f2933" stroke-width="1.5" points="426.4,-36 352.4,-36 352.4,0 426.4,0 426.4,-36"/>
<text class="opm-entity" text-anchor="middle" x="389.4" y="-15.2" font-family="Helvetica,sans-Serif" font-size="11.00">Holospace</text>
</g>
<!-- DP&#45;&gt;Holo -->
<g id="edge14" class="edge">
<title>DP&#45;&gt;Holo</title>
<path fill="none" stroke="#1f2933" d="M132.75,-132.28C175.27,-112.05 249.35,-77.21 313.63,-49 322.99,-44.89 333.07,-40.62 342.7,-36.6"/>
<polygon fill="#1f2933" stroke="#1f2933" points="344.25,-39.75 352.14,-32.68 341.57,-33.28 344.25,-39.75"/>
<text text-anchor="middle" x="253.63" y="-88.8" font-family="Helvetica,sans-Serif" font-size="9.00">yields</text>
</g>
<!-- Repo -->
<g id="node6" class="node">
<title>Repo</title>
<polygon fill="#dce7f4" stroke="#1f2933" stroke-width="1.5" points="676.17,-362 600.17,-362 600.17,-326 676.17,-326 676.17,-362"/>
<text class="opm-entity" text-anchor="middle" x="638.17" y="-341.2" font-family="Helvetica,sans-Serif" font-size="11.00">Repository</text>
</g>
<!-- RF&#45;&gt;Repo -->
<g id="edge6" class="edge">
<title>RF&#45;&gt;Repo</title>
<path fill="none" stroke="#1f2933" d="M454.91,-318.15C497.07,-324.13 551.21,-331.81 589.5,-337.24"/>
<polygon fill="#1f2933" stroke="#1f2933" points="589.46,-340.77 599.85,-338.71 590.44,-333.84 589.46,-340.77"/>
<text text-anchor="middle" x="519.67" y="-331.8" font-family="Helvetica,sans-Serif" font-size="9.00">yields</text>
</g>
<!-- Sub -->
<g id="node11" class="node">
<title>Sub</title>
<polygon fill="#dce7f4" stroke="#1f2933" stroke-width="1.5" points="673.17,-296 603.17,-296 603.17,-260 673.17,-260 673.17,-296"/>
<text class="opm-entity" text-anchor="middle" x="638.17" y="-275.2" font-family="Helvetica,sans-Serif" font-size="11.00">Substrate</text>
</g>
<!-- RF&#45;&gt;Sub -->
<g id="edge5" class="edge">
<title>RF&#45;&gt;Sub</title>
<path fill="none" stroke="#1f2933" d="M456.85,-300.65C499.91,-295.24 554.82,-288.34 592.67,-283.59"/>
<polygon fill="#1f2933" stroke="#1f2933" points="593.39,-287.03 602.87,-282.31 592.51,-280.08 593.39,-287.03"/>
<text text-anchor="middle" x="519.67" y="-296.8" font-family="Helvetica,sans-Serif" font-size="9.00">requires</text>
</g>
<!-- CP&#45;&gt;Repo -->
<g id="edge7" class="edge">
<title>CP&#45;&gt;Repo</title>
<path fill="none" stroke="#1f2933" d="M439.37,-237.78C469.35,-244.6 507.69,-256 538.17,-274 557.38,-285.35 556.26,-295.69 574.17,-309 579.7,-313.11 585.77,-317.08 591.89,-320.76"/>
<polygon fill="#1f2933" stroke="#1f2933" points="590.42,-323.96 600.83,-325.96 593.94,-317.91 590.42,-323.96"/>
<text text-anchor="middle" x="519.67" y="-276.8" font-family="Helvetica,sans-Serif" font-size="9.00">requires</text>
</g>
<!-- Cfg -->
<g id="node7" class="node">
<title>Cfg</title>
<polygon fill="#dce7f4" stroke="#1f2933" stroke-width="1.5" points="702.17,-197 574.17,-197 574.17,-161 702.17,-161 702.17,-197"/>
<text class="opm-entity" text-anchor="middle" x="638.17" y="-176.2" font-family="Helvetica,sans-Serif" font-size="11.00">Devcontainer Config</text>
</g>
<!-- CP&#45;&gt;Cfg -->
<g id="edge8" class="edge">
<title>CP&#45;&gt;Cfg</title>
<path fill="none" stroke="#1f2933" d="M438.69,-219.72C467.57,-214.11 505,-206.77 538.17,-200 546.61,-198.28 555.45,-196.44 564.23,-194.6"/>
<polygon fill="#1f2933" stroke="#1f2933" points="565.02,-198.01 574.09,-192.53 563.58,-191.16 565.02,-198.01"/>
<text text-anchor="middle" x="519.67" y="-209.8" font-family="Helvetica,sans-Serif" font-size="9.00">yields</text>
</g>
<!-- II&#45;&gt;Cfg -->
<g id="edge9" class="edge">
<title>II&#45;&gt;Cfg</title>
<path fill="none" stroke="#1f2933" d="M450.73,-145.01C477.62,-144.26 509.62,-144.77 538.17,-149 551.33,-150.95 565.17,-154.29 578.19,-158.04"/>
<polygon fill="#1f2933" stroke="#1f2933" points="577.38,-161.45 587.97,-160.98 579.4,-154.75 577.38,-161.45"/>
<text text-anchor="middle" x="519.67" y="-151.8" font-family="Helvetica,sans-Serif" font-size="9.00">requires</text>
</g>
<!-- Img -->
<g id="node8" class="node">
<title>Img</title>
<polygon fill="#dce7f4" stroke="#1f2933" stroke-width="1.5" points="678.67,-117 597.67,-117 597.67,-81 678.67,-81 678.67,-117"/>
<text class="opm-entity" text-anchor="middle" x="638.17" y="-96.2" font-family="Helvetica,sans-Serif" font-size="11.00">Base Image</text>
</g>
<!-- II&#45;&gt;Img -->
<g id="edge11" class="edge">
<title>II&#45;&gt;Img</title>
<path fill="none" stroke="#1f2933" d="M440.93,-138.76C483.88,-130.06 545.18,-117.64 587.79,-109"/>
<polygon fill="#1f2933" stroke="#1f2933" points="588.55,-112.42 597.66,-107 587.16,-105.56 588.55,-112.42"/>
<text text-anchor="middle" x="519.67" y="-127.8" font-family="Helvetica,sans-Serif" font-size="9.00">yields</text>
</g>
<!-- II&#45;&gt;Sub -->
<g id="edge10" class="edge">
<title>II&#45;&gt;Sub</title>
<path fill="none" stroke="#1f2933" d="M445.01,-157.45C473.93,-163.45 509.34,-173.31 538.17,-189 568.1,-205.29 596.39,-232.33 615,-252.34"/>
<polygon fill="#1f2933" stroke="#1f2933" points="612.56,-254.86 621.88,-259.9 617.74,-250.15 612.56,-254.86"/>
<text text-anchor="middle" x="519.67" y="-191.8" font-family="Helvetica,sans-Serif" font-size="9.00">requires</text>
</g>
<!-- RA&#45;&gt;Img -->
<g id="edge12" class="edge">
<title>RA&#45;&gt;Img</title>
<path fill="none" stroke="#1f2933" d="M445.71,-69.66C473.56,-66.38 507.77,-64.5 538.17,-69 554.49,-71.42 571.85,-75.97 587.4,-80.8"/>
<polygon fill="#1f2933" stroke="#1f2933" points="586.73,-84.26 597.32,-84 588.88,-77.6 586.73,-84.26"/>
<text text-anchor="middle" x="519.67" y="-71.8" font-family="Helvetica,sans-Serif" font-size="9.00">requires</text>
</g>
<!-- Rfs -->
<g id="node9" class="node">
<title>Rfs</title>
<polygon fill="#dce7f4" stroke="#1f2933" stroke-width="1.5" points="690.17,-47 586.17,-47 586.17,-11 690.17,-11 690.17,-47"/>
<text class="opm-entity" text-anchor="middle" x="638.17" y="-26.2" font-family="Helvetica,sans-Serif" font-size="11.00">Root Filesystem</text>
</g>
<!-- RA&#45;&gt;Rfs -->
<g id="edge13" class="edge">
<title>RA&#45;&gt;Rfs</title>
<path fill="none" stroke="#1f2933" d="M435.42,-66.09C455.44,-60.64 479.37,-54.52 501.17,-50 525.42,-44.97 552.33,-40.57 575.77,-37.11"/>
<polygon fill="#1f2933" stroke="#1f2933" points="576.53,-40.54 585.92,-35.64 575.53,-33.61 576.53,-40.54"/>
<text text-anchor="middle" x="519.67" y="-52.8" font-family="Helvetica,sans-Serif" font-size="9.00">yields</text>
</g>
</g>
</svg>
